<!DOCTYPE svg PUBLIC "-//W3C//DTD SVG 1.1//EN" "http://www.w3.org/Graphics/SVG/1.1/DTD/svg11.dtd">
<svg version="1.1" id="IconsRepoEditor" xmlns="http://www.w3.org/2000/svg" xmlns:xlink="http://www.w3.org/1999/xlink" x="0px" y="0px" width="100px" height="100px" viewBox="0 0 35.5 35.5" style="enable-background:new 0 0 35.5 35.5;" xml:space="preserve" fill="#000000" stroke="#000000" stroke-width="0">
<g id="IconsRepo_bgCarrier"/> <path fill="#ff8800" d="M33.5,3.5H2c-1.104,0-2,0.896-2,2V30c0,1.104,0.896,2,2,2h31.5c1.104,0,2-0.896,2-2V5.5C35.5,4.396,34.604,3.5,33.5,3.5z M31.5,7.5v18.036l-4.574-5.554c-0.169-0.203-0.466-0.24-0.681-0.086l-5.321,3.885l-9.138-8.889 c-0.104-0.104-0.253-0.147-0.396-0.141c-0.146,0.014-0.279,0.092-0.363,0.212L4,25.016V7.5H31.5z M19.5,15 c0-1.792,1.458-3.25,3.25-3.25S26,13.208,26,15s-1.458,3.25-3.25,3.25S19.5,16.792,19.5,15z"/> </svg>